<svg xmlns="http://www.w3.org/2000/svg" id="canvas" viewBox="381.918 568.584 1635.749 249.972"><path d="M 444.70,580.34 C 443.85 580.94, 443.33 581.35, 442.17 583.99 C 441.01 586.62, 440.70 588.31, 438.90 593.51 C 437.11 598.70, 436.06 602.34, 433.20 609.96 C 430.35 617.57, 428.49 622.43, 424.63 631.58 C 420.77 640.74, 418.28 646.13, 413.92 655.75 C 409.57 665.37, 406.95 670.68, 402.86 679.69 C 398.77 688.69, 396.57 693.37, 393.47 700.78 C 390.37 708.20, 389.05 711.77, 387.35 716.76 C 385.65 721.74, 385.15 723.84, 384.95 725.72 C 384.75 727.59, 385.51 727.79, 386.36 726.13 C 387.20 724.47, 387.42 722.33, 389.18 717.39 C 390.93 712.46, 392.10 708.88, 395.13 701.47 C 398.15 694.06, 400.25 689.35, 404.30 680.34 C 408.34 671.32, 410.96 666.01, 415.35 656.40 C 419.75 646.79, 422.27 641.40, 426.25 632.28 C 430.24 623.16, 432.19 618.32, 435.29 610.78 C 438.40 603.25, 439.65 599.68, 441.78 594.61 C 443.91 589.54, 445.02 588.18, 445.95 585.45 C 446.87 582.72, 446.65 581.99, 446.40 580.96 C 446.15 579.94, 445.54 579.73, 444.70 580.34" style="stroke: black; fill: black;"/><path d="M 457.56,593.02 C 457.40 593.62, 457.53 593.37, 457.93 594.91 C 458.33 596.45, 458.74 597.11, 459.57 600.72 C 460.39 604.32, 461.02 606.85, 462.06 612.94 C 463.11 619.03, 463.72 623.43, 464.78 631.15 C 465.85 638.88, 466.26 643.45, 467.38 651.55 C 468.51 659.65, 469.13 663.92, 470.41 671.66 C 471.69 679.40, 472.59 683.38, 473.78 690.26 C 474.97 697.13, 475.52 700.65, 476.37 706.05 C 477.22 711.44, 477.50 713.77, 478.02 717.25 C 478.54 720.72, 478.69 721.64, 478.98 723.42 C 479.27 725.19, 479.15 725.54, 479.46 726.10 C 479.77 726.66, 480.10 726.77, 480.53 726.21 C 480.96 725.66, 481.45 725.21, 481.60 723.32 C 481.75 721.42, 481.83 720.29, 481.28 716.75 C 480.73 713.20, 479.92 710.98, 478.84 705.60 C 477.75 700.23, 477.15 696.73, 475.85 689.88 C 474.55 683.03, 473.62 679.06, 472.33 671.34 C 471.04 663.62, 470.43 659.38, 469.38 651.28 C 468.34 643.19, 467.96 638.62, 467.10 630.86 C 466.24 623.11, 465.73 618.73, 465.07 612.52 C 464.42 606.32, 464.57 603.66, 463.84 599.82 C 463.10 595.98, 462.41 594.91, 461.39 593.33 C 460.37 591.76, 459.51 592.00, 458.74 591.94 C 457.98 591.88, 457.73 592.43, 457.56 593.02" style="stroke: black; fill: black;"/><path d="M 393.49,675.77 C 394.30 676.25, 394.79 676.60, 397.27 676.40 C 399.76 676.20, 401.40 675.59, 405.92 674.78 C 410.45 673.97, 413.51 673.55, 419.91 672.33 C 426.30 671.11, 430.38 670.21, 437.89 668.68 C 445.40 667.14, 450.23 666.21, 457.45 664.65 C 464.67 663.10, 468.58 662.13, 473.98 660.93 C 479.39 659.72, 482.44 659.43, 484.46 658.63 C 486.49 657.82, 486.31 656.86, 484.12 656.89 C 481.93 656.92, 478.95 657.65, 473.52 658.75 C 468.09 659.86, 464.19 660.90, 456.97 662.42 C 449.75 663.95, 444.94 664.95, 437.43 666.38 C 429.93 667.81, 425.85 668.62, 419.44 669.55 C 413.03 670.48, 409.95 670.53, 405.38 671.05 C 400.81 671.57, 399.03 671.55, 396.59 672.15 C 394.15 672.74, 393.80 673.30, 393.18 674.02 C 392.56 674.75, 392.67 675.30, 393.49 675.77" style="stroke: black; fill: black;"/><path d="M 527.93,606.23 C 527.09 606.93, 526.25 607.41, 525.47 610.28 C 524.69 613.15, 524.57 615.31, 524.01 620.58 C 523.46 625.86, 523.06 629.56, 522.68 636.65 C 522.31 643.75, 522.19 648.20, 522.13 656.05 C 522.07 663.90, 521.96 668.54, 522.36 675.91 C 522.76 683.27, 523.03 687.01, 524.12 692.88 C 525.21 698.75, 525.79 701.14, 527.81 705.27 C 529.83 709.40, 531.09 711.24, 534.24 713.54 C 537.38 715.83, 539.56 716.59, 543.53 716.75 C 547.51 716.92, 549.66 716.23, 554.11 714.34 C 558.57 712.46, 561.07 711.01, 565.81 707.34 C 570.56 703.67, 573.41 701.10, 577.83 696.00 C 582.24 690.90, 584.43 687.48, 587.90 681.83 C 591.36 676.18, 593.07 672.99, 595.14 667.76 C 597.21 662.54, 598.10 659.92, 598.24 655.70 C 598.38 651.48, 597.74 649.22, 595.84 646.66 C 593.95 644.09, 592.03 643.12, 588.74 642.88 C 585.46 642.64, 583.17 643.40, 579.43 645.46 C 575.69 647.52, 573.40 649.24, 570.04 653.18 C 566.67 657.12, 564.75 659.98, 562.61 665.16 C 560.47 670.33, 559.59 673.56, 559.34 679.05 C 559.10 684.53, 559.40 687.69, 561.39 692.57 C 563.38 697.46, 565.12 699.94, 569.30 703.48 C 573.49 707.03, 576.63 708.46, 582.29 710.31 C 587.96 712.16, 591.34 712.55, 597.63 712.73 C 603.92 712.91, 607.49 712.48, 613.75 711.19 C 620.01 709.91, 623.29 708.73, 628.92 706.32 C 634.55 703.90, 637.13 702.37, 641.90 699.11 C 646.67 695.85, 649.05 693.91, 652.78 690.02 C 656.52 686.12, 658.14 683.74, 660.58 679.64 C 663.02 675.53, 663.86 673.26, 664.98 669.50 C 666.11 665.74, 666.62 663.36, 666.21 660.84 C 665.81 658.32, 664.51 657.12, 662.97 656.89 C 661.42 656.66, 659.87 657.45, 658.47 659.69 C 657.08 661.94, 656.62 663.93, 655.98 668.14 C 655.35 672.34, 655.12 675.28, 655.28 680.74 C 655.44 686.19, 655.72 689.34, 656.78 695.41 C 657.84 701.47, 658.69 704.78, 660.56 711.06 C 662.44 717.35, 664.03 720.57, 666.15 726.82 C 668.27 733.08, 669.57 736.41, 671.17 742.35 C 672.76 748.30, 673.47 751.27, 674.13 756.55 C 674.79 761.84, 675.05 764.21, 674.45 768.78 C 673.85 773.36, 673.18 775.54, 671.12 779.42 C 669.07 783.30, 667.58 785.06, 664.17 788.19 C 660.76 791.31, 658.58 792.84, 654.08 795.05 C 649.57 797.26, 646.73 798.32, 641.66 799.22 C 636.59 800.13, 633.67 800.15, 628.73 799.57 C 623.79 799.00, 621.25 798.39, 616.97 796.35 C 612.70 794.31, 610.70 792.96, 607.36 789.39 C 604.02 785.82, 602.54 783.00, 600.28 778.50 C 598.01 774.01, 597.38 771.03, 596.05 766.92 C 594.71 762.81, 594.51 759.66, 593.62 757.95 C 592.73 756.24, 591.69 756.42, 591.59 758.39 C 591.49 760.36, 591.91 763.50, 593.11 767.80 C 594.31 772.10, 595.14 775.17, 597.58 779.88 C 600.02 784.59, 601.66 787.55, 605.29 791.35 C 608.93 795.15, 611.15 796.67, 615.77 798.88 C 620.39 801.09, 623.12 801.76, 628.39 802.39 C 633.67 803.02, 636.77 802.99, 642.16 802.05 C 647.55 801.11, 650.55 800.01, 655.36 797.67 C 660.16 795.33, 662.50 793.74, 666.17 790.36 C 669.84 786.98, 671.49 785.01, 673.69 780.76 C 675.89 776.52, 676.57 774.03, 677.16 769.13 C 677.76 764.22, 677.39 761.71, 676.65 756.22 C 675.92 750.74, 675.14 747.76, 673.49 741.72 C 671.83 735.69, 670.49 732.34, 668.37 726.07 C 666.25 719.81, 664.66 716.60, 662.88 710.38 C 661.10 704.17, 660.30 700.91, 659.45 694.98 C 658.60 689.05, 658.46 685.96, 658.62 680.73 C 658.77 675.51, 659.47 672.73, 660.23 668.87 C 660.99 665.01, 661.89 663.53, 662.41 661.43 C 662.93 659.33, 662.85 658.46, 662.84 658.36 C 662.84 658.26, 662.68 658.91, 662.39 660.93 C 662.09 662.96, 662.27 665.05, 661.38 668.49 C 660.49 671.93, 660.04 674.20, 657.92 678.13 C 655.81 682.07, 654.30 684.37, 650.81 688.16 C 647.32 691.94, 645.04 693.86, 640.47 697.04 C 635.90 700.23, 633.40 701.73, 627.96 704.08 C 622.52 706.44, 619.31 707.58, 613.26 708.82 C 607.21 710.05, 603.74 710.44, 597.70 710.25 C 591.67 710.06, 588.43 709.62, 583.10 707.86 C 577.76 706.10, 574.86 704.72, 571.02 701.46 C 567.18 698.20, 565.68 696.01, 563.91 691.56 C 562.13 687.10, 561.87 684.24, 562.16 679.19 C 562.46 674.15, 563.30 671.09, 565.39 666.34 C 567.47 661.58, 569.42 658.93, 572.59 655.42 C 575.76 651.90, 578.04 650.50, 581.23 648.78 C 584.43 647.05, 586.22 646.80, 588.59 646.79 C 590.95 646.77, 591.75 646.95, 593.07 648.72 C 594.38 650.48, 595.24 652.00, 595.16 655.61 C 595.08 659.23, 594.55 661.82, 592.68 666.81 C 590.80 671.80, 589.14 675.04, 585.79 680.54 C 582.44 686.05, 580.26 689.42, 575.92 694.34 C 571.59 699.25, 568.73 701.70, 564.13 705.12 C 559.53 708.55, 557.01 709.79, 552.91 711.44 C 548.82 713.10, 547.02 713.50, 543.65 713.41 C 540.28 713.31, 538.75 712.85, 536.06 710.98 C 533.38 709.11, 532.15 707.77, 530.22 704.06 C 528.29 700.35, 527.55 698.09, 526.41 692.44 C 525.28 686.78, 524.93 683.06, 524.52 675.79 C 524.11 668.52, 524.20 663.87, 524.35 656.08 C 524.51 648.29, 524.70 643.84, 525.30 636.83 C 525.90 629.83, 526.50 626.17, 527.34 621.03 C 528.19 615.90, 529.08 614.03, 529.54 611.17 C 530.01 608.31, 529.99 607.75, 529.67 606.76 C 529.34 605.77, 528.77 605.52, 527.93 606.23" style="stroke: black; fill: black;"/><path d="M 668.08,572.82 C 667.90 572.07, 666.92 571.48, 666.36 571.60 C 665.80 571.73, 665.17 572.71, 665.29 573.46 C 665.41 574.20, 666.58 574.80, 666.95 575.31 C 667.33 575.82, 667.12 575.99, 667.18 576.00 C 667.23 576.01, 667.05 576.00, 667.23 575.37 C 667.41 574.73, 668.25 573.58, 668.08 572.82" style="stroke: black; fill: black;"/><path d="M 757.15,654.19 C 757.29 652.84, 757.06 650.87, 755.77 648.53 C 754.49 646.18, 753.30 644.56, 750.74 642.46 C 748.17 640.36, 746.38 638.88, 742.96 638.03 C 739.53 637.17, 737.62 637.34, 733.62 638.18 C 729.61 639.02, 727.32 639.95, 722.95 642.23 C 718.58 644.50, 715.92 645.95, 711.75 649.56 C 707.58 653.17, 705.36 655.74, 702.11 660.27 C 698.86 664.80, 697.34 667.67, 695.50 672.22 C 693.66 676.78, 692.86 679.16, 692.92 683.04 C 692.99 686.93, 693.61 689.09, 695.83 691.65 C 698.04 694.20, 700.19 695.19, 704.00 695.82 C 707.81 696.45, 710.27 696.05, 714.89 694.82 C 719.50 693.59, 722.28 692.39, 727.09 689.66 C 731.89 686.94, 734.51 684.99, 738.92 681.19 C 743.34 677.38, 745.44 674.80, 749.17 670.64 C 752.90 666.48, 755.18 663.84, 757.58 660.37 C 759.97 656.91, 760.83 654.84, 761.14 653.31 C 761.45 651.79, 760.18 651.56, 759.14 652.75 C 758.09 653.95, 756.87 655.74, 755.91 659.30 C 754.96 662.86, 754.52 665.93, 754.35 670.55 C 754.19 675.16, 754.21 678.19, 755.11 682.39 C 756.00 686.60, 756.67 688.71, 758.83 691.58 C 760.98 694.45, 762.62 695.48, 765.89 696.76 C 769.16 698.03, 771.31 698.38, 775.18 697.97 C 779.05 697.57, 781.30 696.90, 785.25 694.73 C 789.20 692.57, 791.26 690.69, 794.93 687.15 C 798.61 683.61, 800.52 681.23, 803.63 677.03 C 806.74 672.83, 808.17 670.26, 810.48 666.16 C 812.79 662.05, 814.31 659.43, 815.19 656.53 C 816.08 653.62, 815.66 651.96, 814.91 651.63 C 814.15 651.29, 812.58 652.27, 811.42 654.84 C 810.26 657.42, 809.97 659.96, 809.10 664.49 C 808.23 669.03, 807.51 672.59, 807.07 677.51 C 806.62 682.44, 806.48 685.32, 806.89 689.13 C 807.30 692.94, 807.72 694.40, 809.11 696.56 C 810.50 698.71, 811.60 699.36, 813.83 699.91 C 816.05 700.46, 817.50 700.64, 820.24 699.29 C 822.97 697.94, 824.30 696.41, 827.51 693.15 C 830.71 689.88, 832.43 687.25, 836.27 682.97 C 840.11 678.68, 842.51 675.82, 846.71 671.71 C 850.90 667.60, 853.70 665.14, 857.23 662.42 C 860.76 659.69, 862.51 658.86, 864.37 658.10 C 866.23 657.33, 866.24 657.45, 866.52 658.60 C 866.80 659.75, 866.11 661.13, 865.77 663.85 C 865.42 666.57, 865.10 668.73, 864.82 672.19 C 864.53 675.66, 864.27 677.72, 864.36 681.18 C 864.45 684.63, 864.23 686.73, 865.27 689.45 C 866.32 692.18, 868.33 693.94, 869.56 694.80 C 870.80 695.66, 871.43 695.06, 871.44 693.75 C 871.46 692.43, 870.09 690.73, 869.66 688.22 C 869.22 685.70, 869.20 684.28, 869.27 681.16 C 869.34 678.05, 869.72 676.08, 870.03 672.64 C 870.33 669.19, 871.05 667.01, 870.81 663.94 C 870.57 660.86, 870.28 659.03, 868.82 657.24 C 867.36 655.46, 866.23 654.50, 863.51 655.02 C 860.79 655.53, 859.02 656.91, 855.23 659.82 C 851.45 662.73, 848.86 665.37, 844.60 669.57 C 840.34 673.76, 837.87 676.63, 833.91 680.79 C 829.96 684.95, 828.00 687.47, 824.82 690.35 C 821.63 693.24, 820.08 693.91, 817.99 695.22 C 815.91 696.53, 815.54 696.95, 814.37 696.88 C 813.20 696.82, 812.83 696.51, 812.14 694.89 C 811.44 693.27, 811.11 692.19, 810.91 688.79 C 810.70 685.39, 810.63 682.60, 811.11 677.90 C 811.60 673.21, 812.43 669.72, 813.33 665.33 C 814.23 660.95, 815.30 658.74, 815.59 655.99 C 815.89 653.23, 815.64 651.78, 814.81 651.57 C 813.98 651.35, 812.91 652.32, 811.43 654.91 C 809.95 657.49, 809.48 660.45, 807.41 664.50 C 805.34 668.55, 804.03 671.11, 801.08 675.16 C 798.14 679.22, 796.18 681.49, 792.67 684.77 C 789.17 688.05, 787.13 689.70, 783.55 691.56 C 779.97 693.42, 778.04 693.78, 774.79 694.08 C 771.54 694.39, 769.88 694.03, 767.30 693.07 C 764.73 692.11, 763.58 691.57, 761.92 689.29 C 760.26 687.01, 759.58 685.37, 759.01 681.67 C 758.44 677.97, 758.73 675.09, 759.06 670.81 C 759.39 666.53, 760.19 663.76, 760.68 660.28 C 761.17 656.79, 761.79 655.03, 761.50 653.38 C 761.21 651.73, 760.61 651.05, 759.23 652.02 C 757.85 653.00, 757.06 654.91, 754.60 658.25 C 752.14 661.59, 750.46 664.56, 746.96 668.72 C 743.45 672.88, 741.36 675.39, 737.08 679.05 C 732.81 682.70, 730.21 684.49, 725.60 686.98 C 720.99 689.47, 718.23 690.44, 714.03 691.48 C 709.82 692.51, 707.67 692.60, 704.58 692.15 C 701.49 691.70, 700.24 691.05, 698.59 689.22 C 696.94 687.39, 696.38 686.16, 696.34 682.99 C 696.30 679.82, 696.76 677.57, 698.40 673.37 C 700.04 669.17, 701.45 666.29, 704.52 662.00 C 707.59 657.70, 709.76 655.25, 713.75 651.90 C 717.74 648.55, 720.35 647.23, 724.46 645.25 C 728.58 643.26, 730.89 642.54, 734.33 641.98 C 737.77 641.42, 739.07 641.54, 741.66 642.45 C 744.24 643.36, 745.26 644.75, 747.25 646.54 C 749.25 648.33, 750.07 649.67, 751.63 651.41 C 753.19 653.16, 753.96 654.69, 755.07 655.25 C 756.17 655.80, 757.01 655.53, 757.15 654.19" style="stroke: black; fill: black;"/><path d="M 948.52,676.35 C 949.42 675.51, 950.10 673.98, 950.70 671.71 C 951.30 669.44, 951.52 667.93, 951.54 665.00 C 951.56 662.08, 951.66 660.15, 950.81 657.10 C 949.96 654.05, 949.26 652.31, 947.29 649.76 C 945.32 647.20, 944.07 645.80, 940.97 644.32 C 937.87 642.84, 935.71 642.40, 931.80 642.37 C 927.89 642.33, 925.59 642.68, 921.41 644.16 C 917.23 645.64, 914.90 646.80, 910.90 649.76 C 906.90 652.73, 904.60 654.86, 901.41 659.00 C 898.21 663.14, 896.79 665.88, 894.93 670.45 C 893.07 675.03, 892.34 677.61, 892.10 681.89 C 891.87 686.17, 892.07 688.37, 893.76 691.87 C 895.44 695.37, 897.23 697.23, 900.52 699.39 C 903.82 701.55, 905.93 702.29, 910.23 702.67 C 914.52 703.06, 917.15 702.65, 922.00 701.32 C 926.86 699.99, 929.75 698.95, 934.49 696.02 C 939.23 693.09, 941.40 691.14, 945.70 686.66 C 950.00 682.18, 952.37 679.38, 955.97 673.62 C 959.58 667.86, 961.31 664.42, 963.74 657.85 C 966.17 651.28, 966.80 647.41, 968.14 640.76 C 969.48 634.11, 969.88 630.54, 970.44 624.58 C 970.99 618.63, 971.04 615.66, 970.92 610.98 C 970.79 606.30, 970.66 603.84, 969.82 601.18 C 968.97 598.52, 968.15 597.91, 966.68 597.70 C 965.21 597.49, 964.02 597.95, 962.46 600.11 C 960.91 602.27, 960.19 604.13, 958.90 608.50 C 957.60 612.87, 957.12 616.04, 955.98 621.96 C 954.84 627.88, 954.21 631.58, 953.18 638.09 C 952.15 644.61, 951.47 648.22, 950.81 654.53 C 950.15 660.84, 949.89 664.12, 949.90 669.64 C 949.91 675.15, 950.23 677.72, 950.86 682.09 C 951.49 686.45, 951.73 688.30, 953.04 691.46 C 954.34 694.63, 955.29 695.84, 957.39 697.90 C 959.50 699.95, 960.78 701.17, 963.57 701.76 C 966.35 702.34, 969.78 701.54, 971.32 700.80 C 972.86 700.05, 972.61 698.72, 971.27 698.03 C 969.93 697.33, 966.85 697.94, 964.62 697.32 C 962.40 696.71, 961.79 696.44, 960.15 694.97 C 958.51 693.50, 957.67 692.66, 956.41 689.98 C 955.16 687.30, 954.64 685.66, 953.87 681.59 C 953.09 677.51, 952.66 674.96, 952.54 669.60 C 952.42 664.24, 952.64 661.00, 953.28 654.79 C 953.92 648.57, 954.61 644.96, 955.75 638.53 C 956.90 632.10, 957.63 628.39, 959.02 622.62 C 960.41 616.86, 961.30 613.83, 962.71 609.71 C 964.11 605.60, 965.31 604.20, 966.07 602.05 C 966.83 599.90, 966.48 598.98, 966.51 598.96 C 966.55 598.94, 965.95 599.53, 966.23 601.97 C 966.50 604.41, 967.53 606.65, 967.88 611.14 C 968.23 615.62, 968.37 618.55, 967.97 624.38 C 967.58 630.22, 967.18 633.78, 965.92 640.32 C 964.65 646.86, 964.02 650.66, 961.64 657.07 C 959.25 663.48, 957.55 666.81, 954.00 672.37 C 950.45 677.94, 948.09 680.65, 943.89 684.89 C 939.69 689.13, 937.56 690.92, 933.02 693.58 C 928.48 696.25, 925.69 697.10, 921.19 698.22 C 916.70 699.34, 914.29 699.56, 910.56 699.18 C 906.82 698.81, 905.24 698.12, 902.51 696.35 C 899.79 694.58, 898.36 693.18, 896.94 690.32 C 895.52 687.46, 895.23 685.80, 895.42 682.06 C 895.61 678.33, 896.19 675.87, 897.89 671.65 C 899.58 667.42, 900.91 664.77, 903.90 660.93 C 906.89 657.09, 909.12 655.10, 912.85 652.45 C 916.59 649.79, 918.81 648.84, 922.58 647.65 C 926.35 646.47, 928.43 646.37, 931.70 646.53 C 934.96 646.68, 936.61 647.19, 938.91 648.42 C 941.21 649.65, 941.91 650.68, 943.21 652.68 C 944.50 654.68, 944.90 655.94, 945.39 658.41 C 945.88 660.89, 945.60 662.50, 945.66 665.05 C 945.72 667.60, 945.59 668.97, 945.70 671.15 C 945.81 673.33, 945.65 674.90, 946.21 675.94 C 946.77 676.98, 947.62 677.20, 948.52 676.35" style="stroke: black; fill: black;"/><path d="M 1001.35,671.27 C 1000.44 672.10, 999.63 673.36, 998.92 675.84 C 998.21 678.32, 998.10 680.41, 997.80 683.66 C 997.49 686.91, 997.41 689.01, 997.40 692.09 C 997.40 695.17, 997.40 696.96, 997.79 699.06 C 998.17 701.16, 998.82 701.95, 999.31 702.58 C 999.79 703.20, 1000.05 703.17, 1000.21 702.20 C 1000.38 701.22, 1000.41 700.54, 1000.14 697.71 C 999.86 694.88, 998.92 692.57, 998.84 688.06 C 998.75 683.54, 998.96 680.26, 999.71 675.14 C 1000.46 670.01, 1000.89 666.89, 1002.59 662.45 C 1004.30 658.01, 1005.70 655.98, 1008.22 652.91 C 1010.74 649.85, 1012.25 648.78, 1015.20 647.11 C 1018.15 645.45, 1019.84 645.17, 1022.98 644.60 C 1026.12 644.03, 1027.69 644.05, 1030.89 644.26 C 1034.09 644.46, 1035.87 644.88, 1038.99 645.63 C 1042.10 646.38, 1043.79 647.34, 1046.46 648.02 C 1049.13 648.69, 1050.99 649.20, 1052.32 649.02 C 1053.65 648.84, 1053.97 648.21, 1053.11 647.12 C 1052.25 646.03, 1050.66 644.77, 1048.03 643.57 C 1045.41 642.38, 1043.38 641.84, 1039.99 641.14 C 1036.59 640.44, 1034.62 640.13, 1031.06 640.06 C 1027.51 639.99, 1025.73 639.98, 1022.19 640.78 C 1018.66 641.58, 1016.70 642.05, 1013.41 644.07 C 1010.11 646.09, 1008.46 647.43, 1005.71 650.88 C 1002.96 654.33, 1001.53 656.57, 999.65 661.30 C 997.77 666.04, 997.34 669.23, 996.32 674.56 C 995.31 679.89, 994.90 683.15, 994.58 687.95 C 994.26 692.75, 994.06 695.44, 994.73 698.57 C 995.40 701.69, 996.61 702.65, 997.92 703.58 C 999.23 704.50, 1000.31 704.11, 1001.29 703.21 C 1002.26 702.31, 1002.43 701.26, 1002.81 699.06 C 1003.19 696.86, 1003.09 695.21, 1003.20 692.21 C 1003.32 689.21, 1003.25 687.19, 1003.41 684.07 C 1003.56 680.94, 1003.95 679.05, 1003.97 676.58 C 1003.98 674.11, 1004.01 672.77, 1003.49 671.71 C 1002.96 670.65, 1002.26 670.44, 1001.35 671.27" style="stroke: black; fill: black;"/><path d="M 1094.44,669.29 C 1094.76 668.33, 1094.93 667.14, 1094.06 665.30 C 1093.19 663.46, 1092.55 661.75, 1090.07 660.10 C 1087.59 658.45, 1085.68 657.70, 1081.67 657.05 C 1077.66 656.40, 1074.92 656.34, 1070.03 656.87 C 1065.14 657.41, 1061.97 658.05, 1057.22 659.71 C 1052.47 661.37, 1049.86 662.58, 1046.28 665.17 C 1042.71 667.76, 1040.79 669.39, 1039.33 672.68 C 1037.88 675.96, 1037.83 678.28, 1039.02 681.59 C 1040.21 684.90, 1041.91 686.77, 1045.30 689.25 C 1048.68 691.73, 1051.10 692.67, 1055.94 693.98 C 1060.77 695.28, 1063.91 695.57, 1069.47 695.78 C 1075.02 695.99, 1078.36 695.91, 1083.70 695.02 C 1089.04 694.13, 1091.89 693.21, 1096.18 691.33 C 1100.47 689.45, 1102.33 688.21, 1105.14 685.64 C 1107.95 683.07, 1109.16 681.54, 1110.21 678.46 C 1111.26 675.37, 1111.28 673.27, 1110.39 670.21 C 1109.49 667.14, 1108.21 665.64, 1105.74 663.13 C 1103.27 660.61, 1101.32 659.24, 1098.02 657.63 C 1094.71 656.01, 1092.50 655.48, 1089.22 655.07 C 1085.94 654.65, 1083.17 654.98, 1081.61 655.53 C 1080.05 656.09, 1080.07 657.05, 1081.41 657.85 C 1082.76 658.66, 1085.42 658.76, 1088.33 659.56 C 1091.24 660.36, 1093.13 660.48, 1095.96 661.85 C 1098.79 663.23, 1100.44 664.49, 1102.49 666.43 C 1104.54 668.37, 1105.45 669.38, 1106.22 671.54 C 1106.99 673.69, 1107.04 674.89, 1106.33 677.19 C 1105.63 679.50, 1104.98 680.80, 1102.69 683.05 C 1100.40 685.30, 1098.78 686.64, 1094.88 688.44 C 1090.98 690.24, 1088.26 691.20, 1083.20 692.06 C 1078.15 692.91, 1074.87 692.98, 1069.60 692.71 C 1064.33 692.45, 1061.27 692.03, 1056.84 690.75 C 1052.41 689.46, 1050.32 688.39, 1047.46 686.29 C 1044.61 684.19, 1043.53 682.68, 1042.57 680.26 C 1041.61 677.84, 1041.51 676.64, 1042.66 674.19 C 1043.82 671.74, 1045.20 670.25, 1048.33 668.01 C 1051.47 665.77, 1053.94 664.48, 1058.34 663.00 C 1062.75 661.52, 1065.87 660.90, 1070.36 660.60 C 1074.85 660.29, 1077.46 660.66, 1080.79 661.47 C 1084.12 662.29, 1085.12 663.40, 1087.02 664.67 C 1088.92 665.95, 1089.20 666.74, 1090.28 667.83 C 1091.37 668.92, 1091.61 669.81, 1092.44 670.10 C 1093.27 670.39, 1094.11 670.25, 1094.44 669.29" style="stroke: black; fill: black;"/><path d="M 1304.56,584.30 C 1303.70 584.96, 1303.16 585.41, 1301.98 588.21 C 1300.81 591.00, 1300.45 593.02, 1298.69 598.28 C 1296.93 603.53, 1295.73 607.15, 1293.20 614.49 C 1290.67 621.83, 1288.76 626.64, 1286.05 634.96 C 1283.33 643.28, 1281.75 648.07, 1279.61 656.10 C 1277.48 664.13, 1276.26 668.24, 1275.36 675.11 C 1274.46 681.98, 1274.17 685.17, 1275.12 690.45 C 1276.07 695.73, 1277.06 697.90, 1280.12 701.52 C 1283.17 705.15, 1285.48 706.58, 1290.39 708.57 C 1295.30 710.56, 1298.48 711.08, 1304.67 711.49 C 1310.87 711.90, 1314.36 711.42, 1321.38 710.61 C 1328.40 709.79, 1332.51 708.96, 1339.79 707.41 C 1347.08 705.86, 1351.21 704.72, 1357.79 702.85 C 1364.38 700.99, 1367.71 699.73, 1372.74 698.08 C 1377.77 696.42, 1379.79 695.76, 1382.94 694.57 C 1386.09 693.39, 1387.06 693.00, 1388.48 692.13 C 1389.91 691.27, 1389.70 690.66, 1390.05 690.23 C 1390.40 689.80, 1390.16 690.12, 1390.22 689.98 C 1390.29 689.84, 1390.52 689.73, 1390.38 689.51 C 1390.24 689.30, 1390.15 688.95, 1389.51 688.92 C 1388.88 688.89, 1388.79 688.87, 1387.22 689.35 C 1385.66 689.84, 1384.76 690.12, 1381.69 691.36 C 1378.61 692.61, 1376.76 693.73, 1371.86 695.59 C 1366.95 697.45, 1363.66 698.72, 1357.16 700.66 C 1350.65 702.59, 1346.54 703.73, 1339.34 705.27 C 1332.13 706.80, 1328.02 707.58, 1321.12 708.32 C 1314.23 709.06, 1310.80 709.42, 1304.85 708.98 C 1298.90 708.53, 1295.94 707.93, 1291.38 706.11 C 1286.82 704.29, 1284.85 703.08, 1282.05 699.87 C 1279.25 696.65, 1278.31 694.93, 1277.37 690.03 C 1276.44 685.13, 1276.57 682.05, 1277.39 675.36 C 1278.21 668.68, 1279.36 664.55, 1281.47 656.59 C 1283.59 648.64, 1285.16 643.85, 1287.96 635.60 C 1290.76 627.34, 1292.74 622.56, 1295.47 615.31 C 1298.20 608.06, 1299.58 604.50, 1301.63 599.35 C 1303.68 594.21, 1304.79 592.48, 1305.71 589.59 C 1306.64 586.70, 1306.50 585.98, 1306.27 584.92 C 1306.04 583.86, 1305.42 583.64, 1304.56 584.30" style="stroke: black; fill: black;"/><path d="M 1288.96,665.37 C 1290.20 665.53, 1291.74 665.40, 1294.30 664.22 C 1296.85 663.04, 1297.96 661.52, 1301.74 659.49 C 1305.53 657.45, 1308.28 655.99, 1313.23 654.05 C 1318.17 652.11, 1321.13 651.34, 1326.46 649.81 C 1331.78 648.27, 1335.12 647.31, 1339.84 646.37 C 1344.56 645.43, 1346.75 645.60, 1350.07 645.12 C 1353.38 644.63, 1355.16 644.52, 1356.41 643.96 C 1357.67 643.39, 1357.66 642.73, 1356.32 642.31 C 1354.99 641.90, 1353.16 641.68, 1349.74 641.87 C 1346.32 642.06, 1344.03 642.26, 1339.21 643.27 C 1334.39 644.27, 1331.05 645.35, 1325.62 646.88 C 1320.19 648.42, 1317.19 649.11, 1312.06 650.93 C 1306.93 652.74, 1303.96 654.08, 1299.97 655.94 C 1295.98 657.80, 1294.51 658.71, 1292.12 660.22 C 1289.74 661.72, 1288.69 662.43, 1288.06 663.46 C 1287.43 664.49, 1287.71 665.22, 1288.96 665.37" style="stroke: black; fill: black;"/><path d="M 1309.91,627.00 C 1310.47 627.26, 1310.17 627.18, 1311.83 627.00 C 1313.49 626.82, 1314.53 626.72, 1318.23 626.10 C 1321.93 625.48, 1324.39 624.65, 1330.34 623.90 C 1336.29 623.15, 1340.52 622.85, 1347.99 622.34 C 1355.45 621.82, 1360.04 621.66, 1367.67 621.31 C 1375.29 620.96, 1379.78 620.88, 1386.12 620.59 C 1392.46 620.30, 1395.28 620.14, 1399.38 619.87 C 1403.48 619.59, 1405.16 619.63, 1406.60 619.21 C 1408.04 618.78, 1408.04 618.11, 1406.57 617.75 C 1405.11 617.38, 1403.38 617.29, 1399.27 617.38 C 1395.16 617.47, 1392.34 617.86, 1386.00 618.20 C 1379.66 618.54, 1375.20 618.73, 1367.57 619.07 C 1359.93 619.41, 1355.35 619.55, 1347.84 619.90 C 1340.34 620.25, 1336.10 620.44, 1330.05 620.80 C 1324.00 621.16, 1321.45 621.22, 1317.59 621.71 C 1313.72 622.20, 1312.44 622.44, 1310.73 623.25 C 1309.02 624.05, 1309.20 624.98, 1309.04 625.73 C 1308.87 626.48, 1309.36 626.75, 1309.91 627.00" style="stroke: black; fill: black;"/><path d="M 1457.47,635.80 C 1456.89 635.16, 1456.17 635.16, 1454.58 634.72 C 1452.99 634.28, 1452.18 633.66, 1449.51 633.62 C 1446.85 633.58, 1444.78 633.85, 1441.27 634.53 C 1437.76 635.20, 1435.73 636.03, 1431.97 637.00 C 1428.20 637.97, 1425.92 638.27, 1422.45 639.38 C 1418.98 640.50, 1416.87 640.93, 1414.62 642.58 C 1412.36 644.22, 1411.46 645.47, 1411.18 647.60 C 1410.90 649.73, 1411.18 651.20, 1413.22 653.22 C 1415.25 655.23, 1417.34 655.93, 1421.38 657.68 C 1425.41 659.43, 1428.26 660.14, 1433.39 661.97 C 1438.52 663.80, 1441.74 664.78, 1447.03 666.83 C 1452.33 668.88, 1455.41 670.09, 1459.85 672.23 C 1464.29 674.38, 1466.53 675.64, 1469.23 677.55 C 1471.93 679.46, 1472.76 680.24, 1473.36 681.79 C 1473.96 683.35, 1473.54 683.77, 1472.22 685.31 C 1470.90 686.85, 1469.83 687.79, 1466.76 689.51 C 1463.70 691.23, 1461.37 692.40, 1456.91 693.91 C 1452.45 695.43, 1449.50 696.09, 1444.47 697.10 C 1439.45 698.11, 1436.59 698.57, 1431.78 698.98 C 1426.98 699.39, 1424.20 699.47, 1420.45 699.16 C 1416.70 698.84, 1415.30 697.96, 1413.02 697.41 C 1410.75 696.86, 1410.13 696.79, 1409.06 696.41 C 1407.98 696.02, 1408.11 695.57, 1407.65 695.51 C 1407.19 695.45, 1406.78 695.52, 1406.77 696.11 C 1406.76 696.71, 1406.60 697.43, 1407.61 698.49 C 1408.63 699.55, 1409.32 700.56, 1411.85 701.42 C 1414.37 702.28, 1416.18 702.64, 1420.23 702.79 C 1424.28 702.95, 1427.11 702.69, 1432.08 702.18 C 1437.05 701.68, 1439.90 701.24, 1445.09 700.28 C 1450.28 699.32, 1453.28 698.82, 1458.02 697.39 C 1462.77 695.96, 1465.35 695.10, 1468.81 693.12 C 1472.27 691.14, 1473.82 689.97, 1475.33 687.50 C 1476.83 685.03, 1477.15 683.34, 1476.35 680.78 C 1475.55 678.22, 1474.35 676.96, 1471.32 674.69 C 1468.28 672.42, 1465.81 671.56, 1461.17 669.43 C 1456.54 667.30, 1453.45 666.16, 1448.13 664.04 C 1442.82 661.91, 1439.60 660.82, 1434.59 658.81 C 1429.58 656.79, 1426.80 655.74, 1423.07 653.96 C 1419.34 652.18, 1417.81 651.08, 1415.95 649.89 C 1414.09 648.70, 1413.60 648.72, 1413.79 648.03 C 1413.98 647.35, 1414.87 647.30, 1416.88 646.46 C 1418.89 645.61, 1420.61 644.80, 1423.84 643.80 C 1427.07 642.80, 1429.40 642.28, 1433.04 641.46 C 1436.69 640.64, 1438.76 640.09, 1442.07 639.71 C 1445.39 639.33, 1447.14 639.67, 1449.61 639.56 C 1452.07 639.44, 1452.84 639.45, 1454.42 639.12 C 1456.00 638.80, 1456.90 638.61, 1457.51 637.95 C 1458.12 637.28, 1458.06 636.45, 1457.47 635.80" style="stroke: black; fill: black;"/><path d="M 1556.88,655.61 C 1556.55 654.47, 1555.98 652.94, 1553.85 651.56 C 1551.72 650.19, 1549.96 649.32, 1546.22 648.74 C 1542.48 648.16, 1539.96 648.03, 1535.14 648.67 C 1530.32 649.30, 1527.43 650.00, 1522.13 651.92 C 1516.84 653.84, 1513.63 655.16, 1508.66 658.27 C 1503.68 661.38, 1501.09 663.49, 1497.26 667.46 C 1493.43 671.44, 1491.61 673.95, 1489.52 678.14 C 1487.42 682.32, 1486.56 684.69, 1486.79 688.40 C 1487.02 692.11, 1487.98 694.29, 1490.68 696.70 C 1493.37 699.12, 1495.76 699.96, 1500.28 700.48 C 1504.80 701.00, 1507.91 700.58, 1513.28 699.30 C 1518.66 698.03, 1521.89 696.78, 1527.14 694.10 C 1532.39 691.41, 1535.18 689.52, 1539.53 685.86 C 1543.89 682.21, 1545.90 679.90, 1548.90 675.80 C 1551.91 671.70, 1552.98 669.25, 1554.57 665.37 C 1556.17 661.49, 1556.92 658.88, 1556.88 656.41 C 1556.83 653.93, 1555.38 652.73, 1554.34 652.99 C 1553.30 653.25, 1552.36 654.25, 1551.69 657.69 C 1551.02 661.13, 1551.24 663.84, 1550.99 670.19 C 1550.75 676.54, 1550.69 681.13, 1550.46 689.44 C 1550.24 697.75, 1550.30 702.58, 1549.86 711.73 C 1549.42 720.89, 1549.08 725.77, 1548.27 735.19 C 1547.47 744.62, 1546.85 749.89, 1545.84 758.86 C 1544.84 767.83, 1544.26 772.46, 1543.26 780.05 C 1542.25 787.63, 1541.62 791.12, 1540.82 796.80 C 1540.02 802.48, 1539.48 804.88, 1539.27 808.44 C 1539.05 812.01, 1539.36 813.38, 1539.72 814.63 C 1540.09 815.87, 1540.67 815.85, 1541.10 814.66 C 1541.53 813.47, 1541.47 812.18, 1541.87 808.67 C 1542.27 805.15, 1542.44 802.77, 1543.09 797.09 C 1543.74 791.41, 1544.24 787.89, 1545.12 780.28 C 1546.01 772.67, 1546.57 768.03, 1547.53 759.04 C 1548.49 750.05, 1549.10 744.78, 1549.93 735.34 C 1550.75 725.90, 1551.11 720.99, 1551.66 711.83 C 1552.21 702.67, 1552.23 697.82, 1552.69 689.53 C 1553.14 681.24, 1553.40 676.65, 1553.95 670.38 C 1554.51 664.10, 1555.26 661.55, 1555.45 658.17 C 1555.65 654.79, 1555.36 653.93, 1554.92 653.47 C 1554.48 653.01, 1553.99 653.75, 1553.26 655.87 C 1552.52 657.99, 1552.59 660.42, 1551.24 664.07 C 1549.90 667.72, 1549.22 670.17, 1546.52 674.11 C 1543.83 678.05, 1541.89 680.27, 1537.76 683.75 C 1533.62 687.24, 1530.89 689.05, 1525.85 691.55 C 1520.82 694.05, 1517.62 695.15, 1512.59 696.26 C 1507.55 697.37, 1504.58 697.54, 1500.66 697.10 C 1496.74 696.66, 1495.09 695.84, 1492.99 694.06 C 1490.89 692.28, 1490.32 691.12, 1490.18 688.21 C 1490.04 685.30, 1490.46 683.26, 1492.29 679.50 C 1494.12 675.75, 1495.75 673.20, 1499.32 669.43 C 1502.89 665.66, 1505.38 663.58, 1510.14 660.66 C 1514.90 657.74, 1518.06 656.48, 1523.14 654.81 C 1528.21 653.14, 1531.05 652.62, 1535.51 652.31 C 1539.97 652.01, 1542.17 652.61, 1545.42 653.27 C 1548.66 653.93, 1549.72 654.82, 1551.74 655.61 C 1553.75 656.41, 1554.48 657.25, 1555.51 657.24 C 1556.54 657.24, 1557.21 656.74, 1556.88 655.61" style="stroke: black; fill: black;"/><path d="M 1597.36,654.03 C 1596.43 654.76, 1595.45 655.66, 1594.65 658.24 C 1593.86 660.83, 1593.68 662.91, 1593.38 666.96 C 1593.09 671.00, 1592.95 673.83, 1593.18 678.47 C 1593.41 683.10, 1593.61 685.84, 1594.51 690.12 C 1595.42 694.41, 1595.96 696.60, 1597.72 699.88 C 1599.48 703.16, 1600.71 704.71, 1603.31 706.54 C 1605.92 708.37, 1607.53 708.88, 1610.76 709.02 C 1613.98 709.16, 1615.90 708.68, 1619.45 707.23 C 1623.00 705.78, 1624.89 704.69, 1628.51 701.76 C 1632.13 698.83, 1634.09 696.73, 1637.57 692.56 C 1641.04 688.38, 1642.87 685.71, 1645.88 680.89 C 1648.89 676.08, 1650.23 673.18, 1652.62 668.50 C 1655.02 663.82, 1656.45 661.08, 1657.86 657.49 C 1659.26 653.91, 1659.55 652.36, 1659.63 650.56 C 1659.70 648.76, 1659.08 648.19, 1658.23 648.48 C 1657.38 648.77, 1656.20 649.56, 1655.36 652.01 C 1654.52 654.45, 1654.38 656.79, 1654.03 660.71 C 1653.68 664.62, 1653.58 667.19, 1653.62 671.59 C 1653.66 675.99, 1653.80 678.60, 1654.23 682.71 C 1654.67 686.83, 1654.95 688.98, 1655.78 692.18 C 1656.61 695.39, 1657.24 696.79, 1658.40 698.73 C 1659.55 700.67, 1660.64 701.44, 1661.54 701.91 C 1662.44 702.37, 1662.86 701.99, 1662.90 701.06 C 1662.93 700.14, 1662.28 699.26, 1661.71 697.28 C 1661.14 695.29, 1660.75 694.12, 1660.05 691.12 C 1659.34 688.13, 1658.61 686.18, 1658.17 682.28 C 1657.73 678.39, 1657.64 675.86, 1657.83 671.66 C 1658.02 667.46, 1658.58 665.04, 1659.11 661.28 C 1659.63 657.53, 1660.45 655.41, 1660.46 652.87 C 1660.46 650.33, 1659.86 649.24, 1659.14 648.60 C 1658.41 647.97, 1657.79 648.19, 1656.83 649.69 C 1655.88 651.19, 1655.76 652.62, 1654.36 656.11 C 1652.97 659.61, 1652.06 662.50, 1649.87 667.15 C 1647.68 671.79, 1646.34 674.67, 1643.40 679.34 C 1640.47 684.02, 1638.61 686.61, 1635.19 690.54 C 1631.78 694.46, 1629.76 696.37, 1626.32 698.95 C 1622.87 701.53, 1621.05 702.30, 1617.97 703.44 C 1614.88 704.59, 1613.37 704.75, 1610.91 704.68 C 1608.45 704.62, 1607.64 704.45, 1605.69 703.12 C 1603.74 701.79, 1602.66 700.77, 1601.16 698.02 C 1599.67 695.27, 1598.99 693.30, 1598.20 689.36 C 1597.41 685.43, 1597.26 682.74, 1597.20 678.34 C 1597.14 673.94, 1597.48 671.19, 1597.90 667.36 C 1598.31 663.54, 1599.00 661.76, 1599.28 659.22 C 1599.56 656.67, 1599.69 655.68, 1599.30 654.64 C 1598.92 653.60, 1598.29 653.31, 1597.36 654.03" style="stroke: black; fill: black;"/><path d="M 1707.96,643.16 C 1707.22 643.83, 1706.85 644.49, 1706.20 646.74 C 1705.54 649.00, 1705.28 650.72, 1704.70 654.44 C 1704.13 658.16, 1703.81 660.84, 1703.32 665.34 C 1702.84 669.85, 1702.62 672.67, 1702.27 676.97 C 1701.92 681.27, 1701.65 683.54, 1701.57 686.85 C 1701.48 690.16, 1701.51 691.49, 1701.83 693.53 C 1702.16 695.56, 1702.65 696.34, 1703.19 697.00 C 1703.74 697.67, 1704.16 697.56, 1704.55 696.86 C 1704.94 696.15, 1704.89 695.44, 1705.16 693.48 C 1705.42 691.51, 1705.68 690.28, 1705.89 687.04 C 1706.09 683.80, 1705.86 681.51, 1706.17 677.28 C 1706.49 673.04, 1706.79 670.28, 1707.45 665.87 C 1708.10 661.46, 1708.78 658.91, 1709.45 655.23 C 1710.11 651.55, 1710.68 649.84, 1710.76 647.47 C 1710.85 645.10, 1710.45 644.25, 1709.89 643.38 C 1709.33 642.52, 1708.70 642.49, 1707.96 643.16" style="stroke: black; fill: black;"/><path d="M 1719.40,605.32 C 1720.14 604.72, 1720.39 603.56, 1720.36 602.53 C 1720.34 601.50, 1719.96 600.69, 1719.28 600.16 C 1718.60 599.63, 1717.76 599.43, 1716.97 599.89 C 1716.17 600.34, 1715.37 601.31, 1715.30 602.43 C 1715.24 603.56, 1715.83 604.92, 1716.65 605.50 C 1717.47 606.07, 1718.66 605.91, 1719.40 605.32" style="stroke: black; fill: black;"/><path d="M 1760.46,647.79 C 1759.89 648.50, 1759.68 649.08, 1759.50 651.14 C 1759.32 653.20, 1759.16 654.85, 1759.56 658.09 C 1759.95 661.33, 1760.62 663.54, 1761.47 667.35 C 1762.31 671.16, 1762.73 673.27, 1763.78 677.13 C 1764.83 680.99, 1765.49 683.22, 1766.73 686.64 C 1767.97 690.07, 1768.44 691.77, 1769.98 694.26 C 1771.52 696.74, 1772.43 697.74, 1774.43 699.08 C 1776.42 700.43, 1777.60 701.12, 1779.95 701.00 C 1782.29 700.89, 1783.85 700.63, 1786.15 698.52 C 1788.45 696.41, 1789.30 694.33, 1791.44 690.46 C 1793.59 686.59, 1794.71 684.01, 1796.87 679.16 C 1799.02 674.31, 1800.07 671.24, 1802.23 666.22 C 1804.38 661.19, 1805.61 658.24, 1807.65 654.02 C 1809.69 649.80, 1810.83 647.85, 1812.42 645.13 C 1814.02 642.41, 1814.61 641.78, 1815.62 640.43 C 1816.64 639.08, 1816.95 638.90, 1817.50 638.36 C 1818.04 637.82, 1818.19 638.04, 1818.34 637.72 C 1818.49 637.40, 1818.61 637.03, 1818.24 636.77 C 1817.87 636.50, 1817.54 636.13, 1816.50 636.38 C 1815.46 636.64, 1814.53 636.68, 1813.04 638.04 C 1811.55 639.40, 1810.72 640.26, 1809.05 643.18 C 1807.38 646.10, 1806.62 648.29, 1804.68 652.65 C 1802.75 657.01, 1801.56 659.97, 1799.38 664.99 C 1797.20 670.00, 1796.08 673.04, 1793.79 677.72 C 1791.51 682.40, 1790.18 684.92, 1787.95 688.38 C 1785.73 691.84, 1784.33 693.19, 1782.67 695.01 C 1781.00 696.83, 1780.79 697.27, 1779.63 697.47 C 1778.47 697.67, 1777.99 697.13, 1776.87 696.01 C 1775.74 694.89, 1775.24 694.04, 1774.01 691.86 C 1772.79 689.69, 1771.99 688.29, 1770.75 685.13 C 1769.52 681.97, 1768.77 679.80, 1767.84 676.07 C 1766.90 672.34, 1766.62 670.23, 1766.08 666.50 C 1765.54 662.77, 1765.52 660.57, 1765.13 657.41 C 1764.75 654.25, 1764.70 652.68, 1764.15 650.71 C 1763.59 648.73, 1763.10 648.13, 1762.36 647.55 C 1761.63 646.96, 1761.03 647.07, 1760.46 647.79" style="stroke: black; fill: black;"/><path d="M 1847.37,676.38 C 1848.31 676.79, 1849.37 676.82, 1851.38 676.43 C 1853.39 676.05, 1854.74 675.61, 1857.43 674.46 C 1860.12 673.30, 1861.75 672.53, 1864.83 670.65 C 1867.92 668.77, 1869.88 667.40, 1872.85 665.06 C 1875.81 662.72, 1877.46 661.60, 1879.65 658.94 C 1881.84 656.28, 1882.93 654.62, 1883.79 651.75 C 1884.65 648.88, 1884.73 647.13, 1883.94 644.59 C 1883.14 642.05, 1882.27 640.59, 1879.79 639.06 C 1877.32 637.52, 1875.28 636.92, 1871.55 636.92 C 1867.82 636.92, 1865.45 637.49, 1861.13 639.07 C 1856.82 640.65, 1854.24 641.98, 1849.99 644.82 C 1845.74 647.66, 1843.28 649.58, 1839.88 653.26 C 1836.48 656.95, 1834.78 659.10, 1832.99 663.25 C 1831.19 667.39, 1830.53 669.76, 1830.91 674.00 C 1831.29 678.24, 1832.30 680.76, 1834.89 684.45 C 1837.48 688.13, 1839.39 689.87, 1843.87 692.41 C 1848.34 694.96, 1851.16 695.87, 1857.27 697.18 C 1863.38 698.49, 1867.20 698.95, 1874.43 698.95 C 1881.66 698.96, 1885.60 698.65, 1893.42 697.19 C 1901.25 695.73, 1905.82 694.44, 1913.55 691.64 C 1921.29 688.85, 1925.04 687.08, 1932.07 683.23 C 1939.11 679.39, 1942.67 677.13, 1948.74 672.43 C 1954.82 667.74, 1957.87 664.99, 1962.46 659.76 C 1967.06 654.53, 1968.93 651.52, 1971.71 646.31 C 1974.48 641.09, 1975.38 638.37, 1976.33 633.66 C 1977.29 628.95, 1977.48 626.62, 1976.49 622.76 C 1975.50 618.90, 1974.08 616.85, 1971.40 614.38 C 1968.73 611.91, 1966.55 610.89, 1963.10 610.41 C 1959.64 609.94, 1957.74 610.32, 1954.13 612.00 C 1950.52 613.67, 1948.49 615.11, 1945.03 618.79 C 1941.58 622.48, 1939.58 625.13, 1936.84 630.41 C 1934.10 635.70, 1932.82 639.14, 1931.34 645.23 C 1929.86 651.31, 1929.21 654.75, 1929.43 660.85 C 1929.66 666.95, 1930.14 670.16, 1932.46 675.72 C 1934.78 681.28, 1936.73 684.12, 1941.05 688.66 C 1945.36 693.20, 1948.10 695.17, 1954.03 698.41 C 1959.96 701.66, 1963.74 702.98, 1970.70 704.90 C 1977.67 706.82, 1982.21 707.17, 1988.87 708.00 C 1995.52 708.84, 1999.09 708.89, 2003.96 709.06 C 2008.84 709.24, 2011.40 709.25, 2013.26 708.87 C 2015.13 708.48, 2015.13 707.61, 2013.29 707.16 C 2011.46 706.71, 2008.91 706.94, 2004.09 706.63 C 1999.26 706.33, 1995.72 706.39, 1989.16 705.62 C 1982.60 704.84, 1978.10 704.58, 1971.29 702.74 C 1964.48 700.91, 1960.82 699.58, 1955.11 696.45 C 1949.39 693.31, 1946.82 691.39, 1942.74 687.06 C 1938.65 682.73, 1936.84 680.06, 1934.67 674.80 C 1932.50 669.55, 1932.05 666.56, 1931.89 660.77 C 1931.73 654.98, 1932.37 651.66, 1933.87 645.86 C 1935.37 640.06, 1936.69 636.73, 1939.39 631.77 C 1942.10 626.81, 1944.13 624.34, 1947.39 621.06 C 1950.64 617.78, 1952.63 616.71, 1955.66 615.37 C 1958.69 614.03, 1959.91 614.00, 1962.55 614.37 C 1965.19 614.74, 1966.72 615.36, 1968.88 617.21 C 1971.04 619.06, 1972.40 620.43, 1973.35 623.62 C 1974.30 626.81, 1974.38 628.83, 1973.63 633.15 C 1972.89 637.47, 1972.16 640.17, 1969.61 645.22 C 1967.06 650.27, 1965.29 653.25, 1960.88 658.39 C 1956.47 663.53, 1953.50 666.27, 1947.56 670.91 C 1941.62 675.56, 1938.11 677.80, 1931.18 681.59 C 1924.25 685.38, 1920.54 687.14, 1912.91 689.86 C 1905.29 692.58, 1900.75 693.83, 1893.06 695.20 C 1885.37 696.58, 1881.49 696.82, 1874.44 696.71 C 1867.40 696.61, 1863.65 696.04, 1857.83 694.68 C 1852.01 693.31, 1849.40 692.30, 1845.33 689.89 C 1841.27 687.47, 1839.75 685.85, 1837.51 682.62 C 1835.28 679.38, 1834.47 677.33, 1834.16 673.71 C 1833.84 670.10, 1834.31 668.18, 1835.93 664.54 C 1837.55 660.89, 1839.07 658.84, 1842.25 655.47 C 1845.43 652.10, 1847.82 650.22, 1851.85 647.67 C 1855.88 645.12, 1858.45 643.96, 1862.38 642.71 C 1866.32 641.46, 1868.48 641.40, 1871.53 641.43 C 1874.58 641.46, 1875.91 642.02, 1877.63 642.87 C 1879.36 643.72, 1879.80 644.20, 1880.15 645.68 C 1880.51 647.15, 1880.21 648.20, 1879.40 650.26 C 1878.59 652.32, 1877.96 653.75, 1876.08 655.98 C 1874.21 658.21, 1872.79 659.37, 1870.04 661.42 C 1867.30 663.46, 1865.35 664.69, 1862.35 666.22 C 1859.35 667.75, 1857.60 667.91, 1855.05 669.06 C 1852.51 670.21, 1851.30 670.92, 1849.63 671.98 C 1847.95 673.04, 1847.15 673.50, 1846.70 674.38 C 1846.25 675.26, 1846.44 675.97, 1847.37 676.38" style="stroke: black; fill: black;"/></svg>